<?xml version="1.0" encoding="UTF-8" standalone="no"?>
<!-- Created deploy Inkscape (http://www.inkscape.org/) -->

<svg xmlns:dc="http://purl.org/dc/elements/1.1/" xmlns:cc="http://creativecommons.org/ns#" xmlns:rdf="http://www.w3.org/1999/02/22-rdf-syntax-ns#" xmlns="http://www.w3.org/2000/svg" xmlns:sodipodi="http://sodipodi.sourceforge.net/DTD/sodipodi-0.dtd" xmlns:inkscape="http://www.inkscape.org/namespaces/inkscape" width="86.229668mm" height="97mm" viewBox="0 0 86.229668 97" version="1.1" id="svg5440" inkscape:version="0.92.4 (5da689c313, 2019-01-14)" sodipodi:docname="logo.svg">
  <defs
     id="defs5434" />
  <sodipodi:namedview
     id="base"
     pagecolor="#ffffff"
     bordercolor="#666666"
     borderopacity="1.0"
     inkscape:pageopacity="0.0"
     inkscape:pageshadow="2"
     inkscape:zoom="1.979899"
     inkscape:cx="108.45263"
     inkscape:cy="173.85324"
     inkscape:document-units="mm"
     inkscape:current-layer="layer1"
     showgrid="false"
     inkscape:pagecheckerboard="true"
     fit-margin-top="20"
     fit-margin-left="20"
     fit-margin-right="20"
     fit-margin-bottom="20"
     inkscape:window-width="1920"
     inkscape:window-height="1012"
     inkscape:window-x="0"
     inkscape:window-y="32"
     inkscape:window-maximized="1" />
  <metadata
     id="metadata5437">
    <rdf:RDF>
      <cc:Work
         rdf:about="">
        <dc:format>image/svg+xml</dc:format>
        <dc:type
           rdf:resource="http://purl.org/dc/dcmitype/StillImage" />
        <dc:title></dc:title>
      </cc:Work>
    </rdf:RDF>
  </metadata>
  <g
     inkscape:label="Layer 1"
     inkscape:groupmode="layer"
     id="layer1"
     transform="translate(-62.718495,-94.28571)">
    <g
       id="g5612">
      <path
         d="M 122.28688,115.00009 H 89.379774 c -3.344686,0 -6.081889,2.73685 -6.081889,6.08189 v 26.95399 c 0,12.44593 10.089797,22.53537 22.535445,22.53537 12.446,0 22.53544,-10.08944 22.53544,-22.53537 v -26.95399 c 0,-3.34504 -2.73685,-6.08189 -6.08189,-6.08189"
         style="fill:#2d356d;fill-opacity:1;fill-rule:nonzero;stroke:none;stroke-width:0.03527778"
         id="path194"
         inkscape:connector-curvature="0" />
      <path
         d="m 111.53281,139.09129 c -2.18158,-1.27459 -5.45994,-1.74167 -7.9308,-0.85478 -2.6984,0.96943 -4.333523,1.57409 -7.141281,0.2607 -2.422878,-1.13312 -4.738864,-2.93405 -7.258755,-3.68477 -2.461683,-0.73377 -4.148314,-0.31644 -5.904089,0.47731 v 12.74622 c 0,12.44593 10.089797,22.53537 22.535445,22.53537 12.446,0 22.53544,-10.08944 22.53544,-22.53537 v -0.64241 c -2.48496,-0.28258 -4.88244,-0.46214 -7.25593,-1.47532 -3.57611,-1.52788 -6.25793,-4.88527 -9.58003,-6.82695"
         style="fill:#1f223b;fill-opacity:1;fill-rule:nonzero;stroke:none;stroke-width:0.03527778"
         id="path202"
         inkscape:connector-curvature="0" />
      <g
         transform="matrix(0.1134692,0.08634768,0.08634768,-0.1134692,60.099999,121.37218)"
         id="g5210">
        <g
           id="g5216">
          <path
             d="m 373.32078,99.795272 c 0,2.153998 -1.747,3.900998 -3.902,3.900998 -2.155,0 -3.901,-1.747 -3.901,-3.900998 0,-1.15601 0.505,-2.19 1.302,-2.90501 l -0.01,-0.013 c 0,0 1.565,-1.627 1.773,-3.45801 0.215,-1.88599 0.498,-5.577 0.706,-8.44899 0,0 0.07,-2.442 0.121,-1.704 0.052,-0.738 0.123,1.704 0.123,1.704 0.207,2.87199 0.49,6.563 0.705,8.44899 0.208,1.83101 1.773,3.45801 1.773,3.45801 l -0.003,0.004 c 0.804,0.71503 1.313,1.75303 1.313,2.91403"
             style="fill:#ffffff;fill-opacity:1;fill-rule:nonzero;stroke:none;stroke-width:0.09999999"
             id="path280"
             inkscape:connector-curvature="0" />
          <path
             d="m 399.70278,99.795272 c 0,2.153998 1.747,3.900998 3.902,3.900998 2.154,0 3.901,-1.747 3.901,-3.900998 0,-1.15601 -0.505,-2.19 -1.303,-2.90501 l 0.011,-0.013 c 0,0 -1.566,-1.627 -1.774,-3.45801 -0.214,-1.88599 -0.498,-5.577 -0.705,-8.44899 0,0 -0.07,-2.442 -0.121,-1.704 -0.053,-0.738 -0.122,1.704 -0.122,1.704 -0.208,2.87199 -0.492,6.563 -0.706,8.44899 -0.209,1.83101 -1.774,3.45801 -1.774,3.45801 l 0.004,0.004 c -0.804,0.715 -1.313,1.753 -1.313,2.914"
             style="fill:#ffffff;fill-opacity:1;fill-rule:nonzero;stroke:none;stroke-width:0.09999999"
             id="path282"
             inkscape:connector-curvature="0" />
          <path
             d="m 392.78378,98.857262 c 0,3.407008 -2.761,6.168998 -6.168,6.168998 -3.408,0 -6.169,-2.76199 -6.169,-6.168998 0,-1.826 0.797,-3.46299 2.059,-4.592 l -0.016,-0.021 c 0,0 2.475,-2.57299 2.804,-5.46799 0.34,-2.981 0.787,-8.81801 1.116,-13.359 0,0 0.11,-3.86301 0.192,-2.69501 0.082,-1.168 0.192,2.69501 0.192,2.69501 0.328,4.54099 0.777,10.378 1.115,13.359 0.33,2.895 2.805,5.46799 2.805,5.46799 l -0.005,0.007 c 1.271,1.13 2.075,2.772 2.075,4.606"
             style="fill:#ffffff;fill-opacity:1;fill-rule:nonzero;stroke:none;stroke-width:0.09999999"
             id="path284"
             inkscape:connector-curvature="0" />
          <path
             d="m 407.05678,122.52627 c 0.013,0.14199 0.013,0.28299 -0.003,0.42399 -0.064,0.59601 -0.312,1.689 -0.689,2.83301 l -0.007,0.021 -0.048,0.13999 c -0.044,0.13001 -0.09,0.26001 -0.138,0.39 l -0.053,0.14601 c -0.059,0.159 -0.122,0.318 -0.186,0.474 l -0.058,0.138 c -0.06,0.14299 -0.122,0.28399 -0.185,0.42099 l -0.034,0.076 c -0.074,0.156 -0.15,0.305 -0.227,0.452 l -0.061,0.11301 c -0.08,0.14499 -0.161,0.28599 -0.245,0.41899 l -0.03,0.046 c -0.077,0.12 -0.156,0.233 -0.237,0.34 l -0.059,0.078 c -0.089,0.111 -0.178,0.214 -0.269,0.305 l -0.054,0.051 -0.256,0.213 -0.044,0.033 c -0.096,0.064 -0.192,0.112 -0.291,0.149 l -0.065,0.021 c -0.102,0.032 -0.203,0.054 -0.307,0.054 -0.103,0 -0.206,-0.022 -0.307,-0.054 l -0.066,-0.021 c -0.099,-0.037 -0.195,-0.085 -0.291,-0.149 l -0.045,-0.033 -0.255,-0.213 -0.054,-0.051 c -0.091,-0.091 -0.18,-0.194 -0.268,-0.305 l -0.06,-0.078 c -0.081,-0.108 -0.16,-0.22 -0.237,-0.34 l -0.03,-0.046 c -0.084,-0.133 -0.165,-0.27499 -0.245,-0.42 l -0.06,-0.111 c -0.078,-0.147 -0.153,-0.297 -0.226,-0.453 l -0.036,-0.076 c -0.063,-0.138 -0.126,-0.279 -0.186,-0.423 l -0.056,-0.134 c -0.065,-0.15799 -0.128,-0.31799 -0.187,-0.478 l -0.052,-0.141 c -0.048,-0.132 -0.095,-0.26499 -0.14,-0.39699 l -0.046,-0.13401 -0.007,-0.023 h 9.7e-4 c -0.378,-1.144 -0.626,-2.237 -0.691,-2.833 -0.016,-0.141 -0.016,-0.282 -0.003,-0.424 l 0.469,-8.696 -6.676,5.875 2.117,32.493 c 0.034,0.37 0.035,0.741 -0.006,1.111 -0.224,2.066 -1.287,6.42 -2.877,10.342 -1.65302,4.23201 -3.91202,8.03801 -6.40402,8.03801 -2.493,0 -4.752,-3.806 -6.404,-8.038 -1.59,-3.922 -2.652,-8.276 -2.877,-10.342 -0.04,-0.37 -0.04,-0.741 -0.007,-1.111 l 2.11,-32.36801 -6.818,-5.99999 0.468,8.696 c 0.013,0.14199 0.014,0.28299 -0.002,0.42399 -0.065,0.59601 -0.313,1.689 -0.69,2.83301 v 0 l -0.007,0.021 -0.048,0.13999 c -0.044,0.13001 -0.09,0.26001 -0.137,0.39 l -0.054,0.14601 c -0.059,0.159 -0.122,0.318 -0.185,0.474 l -0.059,0.138 c -0.0589,0.14299 -0.12092,0.28399 -0.18392,0.42099 l -0.035,0.076 c -0.074,0.156 -0.149,0.305 -0.226,0.452 l -0.062,0.11301 c -0.08,0.14499 -0.16,0.28599 -0.244,0.41899 l -0.03,0.046 c -0.078,0.12 -0.157,0.233 -0.237,0.34 l -0.06,0.078 c -0.088,0.111 -0.178,0.214 -0.268,0.305 l -0.054,0.051 -0.256,0.213 -0.045,0.033 c -0.095,0.064 -0.192,0.112 -0.29,0.149 l -0.066,0.021 c -0.102,0.032 -0.203,0.054 -0.307,0.054 -0.104,0 -0.205,-0.022 -0.307,-0.054 l -0.066,-0.021 c -0.098,-0.037 -0.194,-0.085 -0.29,-0.149 l -0.045,-0.033 -0.256,-0.213 -0.054,-0.051 c -0.09,-0.091 -0.18,-0.194 -0.268,-0.305 l -0.06,-0.078 c -0.08,-0.108 -0.159,-0.22 -0.237,-0.34 l -0.03,-0.046 c -0.084,-0.133 -0.165,-0.27499 -0.244,-0.42 l -0.061,-0.111 c -0.077,-0.147 -0.153,-0.297 -0.227,-0.453 l -0.034,-0.076 c -0.064,-0.138 -0.126,-0.279 -0.186,-0.423 l -0.057,-0.134 c -0.064,-0.15799 -0.127,-0.31799 -0.187,-0.478 l -0.052,-0.141 c -0.048,-0.132 -0.095,-0.26499 -0.14,-0.39699 l -0.045,-0.13401 -0.008,-0.023 v 0 c -0.377,-1.144 -0.625,-2.237 -0.69,-2.833 -0.016,-0.141 -0.015,-0.282 -0.002,-0.424 l 0.831,-15.437 0.223,-4.125 h 4.984 l 0.015,0.273 0.291,5.394 7.595,3.581 0.153,-2.362 h 0.083 l 1.847,-6.076 h 9.175 l 1.867,6.076 h 0.084 l 0.149,2.293 7.449,-3.512 0.083,-1.542 0.222,-4.125 h 4.985 l 0.222,4.125 0.832,15.437"
             style="fill:#ee2834;fill-opacity:1;fill-rule:nonzero;stroke:none;stroke-width:0.09999999"
             id="path286"
             inkscape:connector-curvature="0" />
        </g>
      </g>
      <path
         d="m 127.68403,153.56294 -9.05827,-7.5117 -4.93854,6.0512 -9.60755,-11.54607 -6.619521,8.45961 -4.094339,-3.6957 -6.275564,6.6608 v 8.56573 c 3.389489,5.068 8.779933,8.68122 15.041384,9.71698 l 8.33261,-0.17075 c 8.42822,-1.76071 15.12606,-8.22924 17.21979,-16.5301"
         style="fill:#ee2037;fill-opacity:1;fill-rule:nonzero;stroke:none;stroke-width:0.03527778"
         id="path222"
         inkscape:connector-curvature="0" />
      <path
         d="m 97.460149,149.01598 6.160911,5.6769 1.74696,-6.10658 -1.47497,0.75953 0.0808,-3.18417 -0.75036,0.52387 0.85619,-3.79977 -0.85619,0.52211 0.85619,-2.8515 -6.619521,8.45961"
         style="fill:#b82329;fill-opacity:1;fill-rule:nonzero;stroke:none;stroke-width:0.03527778"
         id="path224"
         inkscape:connector-curvature="0" />
      <path
         d="m 96.083257,151.77329 -0.353131,0.18698 0.353131,-0.50024 -1.719086,-3.59269 h -0.70485 l 0.352425,-0.93945 -1.321858,0.68333 0.969433,-1.11936 -0.288925,-1.1684 -0.0046,-0.003 -6.275564,6.6608 9.795228,3.3595 -0.802217,-3.56729"
         style="fill:#b82329;fill-opacity:1;fill-rule:nonzero;stroke:none;stroke-width:0.03527778"
         id="path226"
         inkscape:connector-curvature="0" />
      <path
         d="m 121.56228,154.67524 -0.70626,-2.71921 -1.01424,0.34431 0.74895,-0.75 -0.6163,0.15593 -0.22155,-0.75001 h -0.45261 l 0.67416,-0.7179 -0.96979,-2.15653 h -0.37888 l 0.37888,-0.47519 -0.37253,-1.54729 -0.006,-0.008 -4.92725,6.03744 7.86377,2.58656"
         style="fill:#b82329;fill-opacity:1;fill-rule:nonzero;stroke:none;stroke-width:0.03527778"
         id="path228"
         inkscape:connector-curvature="0" />
      <path
         d="M 122.28688,115.00009 H 89.379774 c -3.344686,0 -6.081889,2.73685 -6.081889,6.08189 v 26.95399 c 0,12.44593 10.089797,22.53537 22.535445,22.53537 12.446,0 22.53544,-10.08944 22.53544,-22.53537 v -26.95399 c 0,-3.34504 -2.73685,-6.08189 -6.08189,-6.08189 z m 0,4.12115 c 1.06222,0 1.96039,0.89817 1.96039,1.96074 v 26.95399 c 0,10.15287 -8.25994,18.41394 -18.41394,18.41394 -10.153298,0 -18.413942,-8.26107 -18.413942,-18.41394 v -26.95399 c 0,-1.06257 0.898172,-1.96074 1.960386,-1.96074 h 32.907106"
         style="fill:#26559f;fill-opacity:1;fill-rule:nonzero;stroke:none;stroke-width:0.03527778"
         id="path230"
         inkscape:connector-curvature="0" />
      <g
         transform="matrix(0.16520994,0,0,-0.16520994,51.398273,162.70584)"
         inkscape:label="oblo"
         id="oblo">
        <path
           inkscape:connector-curvature="0"
           id="path206"
           style="fill:#1f223b;fill-opacity:1;fill-rule:nonzero;stroke:none;stroke-width:0.1"
           d="m 397.831,148.321 c -0.851,-1.186 -2.499,-1.464 -3.687,-0.617 -1.187,0.848 -1.462,2.496 -0.617,3.686 0.847,1.188 2.494,1.463 3.683,0.617 1.189,-0.848 1.466,-2.496 0.621,-3.686" />
        <path
           inkscape:connector-curvature="0"
           id="path208"
           style="fill:#26559f;fill-opacity:1;fill-rule:nonzero;stroke:none;stroke-width:0.1"
           d="m 397.084,148.854 c -0.555,-0.778 -1.633,-0.958 -2.41,-0.406 -0.778,0.555 -0.957,1.634 -0.404,2.409 0.555,0.78 1.633,0.958 2.409,0.405 0.778,-0.553 0.959,-1.631 0.405,-2.408" />
        <path
           inkscape:connector-curvature="0"
           id="path210"
           style="fill:#e4e8e7;fill-opacity:1;fill-rule:nonzero;stroke:none;stroke-width:0.1"
           d="m 393.953,149.949 3.324,0.556 c -0.074,0.183 -0.181,0.356 -0.317,0.507 l -2.872,-0.481 c -0.08,-0.186 -0.125,-0.386 -0.135,-0.582" />
        <path
           inkscape:connector-curvature="0"
           id="path212"
           style="fill:#e4e8e7;fill-opacity:1;fill-rule:nonzero;stroke:none;stroke-width:0.1"
           d="m 394.359,148.74 2.929,0.49 c 0.073,0.189 0.112,0.385 0.118,0.58 l -3.345,-0.561 c 0.067,-0.181 0.167,-0.354 0.298,-0.509" />
      </g>
      <path
         d="M 122.70991,114.28571 H 88.956751 c -3.430679,0 -6.238256,2.80722 -6.238256,6.23826 v 27.64698 c 0,12.76592 10.349208,23.11476 23.114835,23.11476 12.76599,0 23.11483,-10.34884 23.11483,-23.11476 v -27.64698 c 0,-3.43104 -2.80721,-6.23826 -6.23825,-6.23826 z m 0,2.30569 c 2.16819,0 3.93256,1.76438 3.93256,3.93257 v 27.64698 c 0,11.47386 -9.33495,20.80914 -20.80914,20.80914 -11.47383,0 -20.809141,-9.33528 -20.809141,-20.80914 v -27.64698 c 0,-2.16819 1.764008,-3.93257 3.932562,-3.93257 h 33.753159"
         style="fill:#fffbf2;fill-opacity:1;fill-rule:nonzero;stroke:none;stroke-width:0.03618478"
         id="path232"
         inkscape:connector-curvature="0" />
      <g
         transform="matrix(0.35277777,0,0,-0.35277777,-17.420501,191.98352)"
         id="g196">
        <text
           transform="matrix(1,0,0,-1,314.642,161.755)"
           style="font-variant:normal;font-weight:normal;font-size:19.76259995px;font-family:Norwester;-inkscape-font-specification:Norwester-Regular;writing-mode:lr-tb;fill:#26559f;fill-opacity:1;fill-rule:nonzero;stroke:none"
           id="text200">
          <tspan
             style="fill:#fffbf2;fill-opacity:1"
             y="0"
             x="0"
             sodipodi:role="line"
             id="tspan198">olympus</tspan>
        </text>
      </g>
      <g
         transform="matrix(0.35277777,0,0,-0.35277777,-23.442197,191.98352)"
         id="g240">
        <text
           transform="matrix(1,0,0,-1,319.301,182.943)"
           style="font-variant:normal;font-weight:900;font-size:22.89209938px;font-family:'Nexa Rust Sans';-inkscape-font-specification:NexaRustSans-Black;writing-mode:lr-tb;fill:#fffbf2;fill-opacity:1;fill-rule:nonzero;stroke:none"
           id="text244">
          <tspan
             x="0"
             y="0"
             sodipodi:role="line"
             id="tspan242">MOUNT</tspan>
        </text>
      </g>
      <path
         d="m 90.603207,141.12822 0.2667,0.48966 0.489656,0.26741 -0.489656,0.2674 -0.2667,0.4893 -0.268111,-0.4893 -0.489303,-0.2674 0.489303,-0.26741 0.268111,-0.48966"
         style="fill:#fffbf2;fill-opacity:1;fill-rule:nonzero;stroke:none;stroke-width:0.03527778"
         id="path246"
         inkscape:connector-curvature="0" />
      <path
         d="m 99.052235,142.67127 0.267758,0.48966 0.48895,0.26705 -0.48895,0.26776 -0.267758,0.4893 -0.267759,-0.4893 -0.489302,-0.26776 0.489302,-0.26705 0.267759,-0.48966"
         style="fill:#fffbf2;fill-opacity:1;fill-rule:nonzero;stroke:none;stroke-width:0.03527778"
         id="path248"
         inkscape:connector-curvature="0" />
      <path
         d="m 99.052235,135.86584 0.267758,0.48965 0.48895,0.26706 -0.48895,0.26776 -0.267758,0.4893 -0.267759,-0.4893 -0.489302,-0.26776 0.489302,-0.26706 0.267759,-0.48965"
         style="fill:#fffbf2;fill-opacity:1;fill-rule:nonzero;stroke:none;stroke-width:0.03527778"
         id="path250"
         inkscape:connector-curvature="0" />
      <path
         d="m 121.56263,131.27056 0.26741,0.48859 0.4893,0.26811 -0.4893,0.26776 -0.26741,0.48931 -0.26776,-0.48931 -0.48965,-0.26776 0.48965,-0.26811 0.26776,-0.48859"
         style="fill:#fffbf2;fill-opacity:1;fill-rule:nonzero;stroke:none;stroke-width:0.03527778"
         id="path256"
         inkscape:connector-curvature="0" />
      <path
         d="m 89.752367,126.38748 0.267406,0.4886 0.48895,0.26776 -0.48895,0.26775 -0.267406,0.48931 -0.267758,-0.48931 -0.489656,-0.26775 0.489656,-0.26776 0.267758,-0.4886"
         style="fill:#fffbf2;fill-opacity:1;fill-rule:nonzero;stroke:none;stroke-width:0.03527778"
         id="path258"
         inkscape:connector-curvature="0" />
      <path
         d="m 121.7962,121.96028 0.2674,0.48931 0.48931,0.26776 -0.48931,0.26775 -0.2674,0.48931 -0.26776,-0.48931 -0.48966,-0.26775 0.48966,-0.26776 0.26776,-0.48931"
         style="fill:#fffbf2;fill-opacity:1;fill-rule:nonzero;stroke:none;stroke-width:0.03527778"
         id="path260"
         inkscape:connector-curvature="0" />
      <path
         d="m 90.728263,132.48048 0.267406,0.4886 0.489303,0.26811 -0.489303,0.26776 -0.267406,0.4893 -0.267758,-0.4893 -0.489656,-0.26776 0.489656,-0.26811 0.267758,-0.4886"
         style="fill:#fffbf2;fill-opacity:1;fill-rule:nonzero;stroke:none;stroke-width:0.03527777"
         id="path256-6"
         inkscape:connector-curvature="0" />
      <path
         d="m 108.23048,120.98539 0.2674,0.4886 0.4893,0.26811 -0.4893,0.26776 -0.2674,0.4893 -0.26776,-0.4893 -0.48966,-0.26776 0.48966,-0.26811 0.26776,-0.4886"
         style="fill:#fffbf2;fill-opacity:1;fill-rule:nonzero;stroke:none;stroke-width:0.03527777"
         id="path256-5"
         inkscape:connector-curvature="0" />
      <g
         transform="matrix(0.27338118,0,0,-0.27338118,15.52216,174.60623)"
         id="g5339">
        <path
           inkscape:connector-curvature="0"
           id="path112"
           style="fill:#ee2037;fill-opacity:1;fill-rule:nonzero;stroke:none;stroke-width:0.02748439"
           d="m 322.15159,183.12963 c 0,6.9016 -5.595,12.4966 -12.4966,12.4966 -6.9016,0 -12.4966,-5.595 -12.4966,-12.4966 0,-6.90161 5.595,-12.4966 12.4966,-12.4966 6.9016,0 12.4966,5.59499 12.4966,12.4966" />
        <g
           id="g5330"
           transform="translate(34.202061,-0.52881603)">
          <path
             d="m 267.73328,173.83346 20.13176,11.22738 c -0.0231,0.20668 -0.0508,0.41144 -0.0838,0.61482 l -24.08677,-6.26506 c 0.30755,-0.85037 0.70635,-1.65621 1.18156,-2.40956 l 8.18402,1.16919 -6.77627,-3.00212 c 0.44689,-0.48208 0.93199,-0.9276 1.44952,-1.33465"
             style="fill:#b82329;fill-opacity:1;fill-rule:nonzero;stroke:none;stroke-width:0.02748439"
             id="path114"
             inkscape:connector-curvature="0" />
          <path
             d="m 262.96364,183.21279 c 0.0418,-1.1909 0.24956,-2.33893 0.60246,-3.42263 l 4.20813,4.90953 -4.81059,-1.4869"
             style="fill:#b82329;fill-opacity:1;fill-rule:nonzero;stroke:none;stroke-width:0.02748439"
             id="path116"
             inkscape:connector-curvature="0" />
          <path
             d="m 287.1958,179.38916 c 0.23747,0.65358 0.41914,1.33327 0.54557,2.03247 l -8.77384,-3.71781 8.22827,1.68534"
             style="fill:#b82329;fill-opacity:1;fill-rule:nonzero;stroke:none;stroke-width:0.02748439"
             id="path118"
             inkscape:connector-curvature="0" />
          <path
             d="m 284.91625,175.50836 c 0.40979,0.47576 0.78467,0.98202 1.11998,1.51604 l -17.57983,-3.72303 c 1.60426,-1.08509 3.4754,-1.8038 5.49303,-2.04512 l 10.96682,4.25211"
             style="fill:#b82329;fill-opacity:1;fill-rule:nonzero;stroke:none;stroke-width:0.02748439"
             id="path120-9"
             inkscape:connector-curvature="0" />
          <path
             d="m 283.45078,193.25668 -7.74812,-1.56111 5.23989,3.18956 c -0.38011,0.18634 -0.77011,0.3551 -1.17083,0.50269 l -15.77329,-6.72158 c -0.59284,-1.35443 -0.95481,-2.83309 -1.03066,-4.38761 l 10.40284,6.17327 -3.8863,-2.6429 11.34858,2.95375 -13.05866,-7.61758 17.77031,7.87648 c -0.60493,0.82783 -1.30771,1.57925 -2.09376,2.23503"
             style="fill:#b82329;fill-opacity:1;fill-rule:nonzero;stroke:none;stroke-width:0.02748439"
             id="path122"
             inkscape:connector-curvature="0" />
        </g>
      </g>
    </g>
  </g>
</svg>
